<svg width="142" height="60" viewBox="0 0 142 60" fill="none" xmlns="http://www.w3.org/2000/svg">
<symbol id="header-logo" viewBox="0 0 142 60" clip-path="url(#clip0_8223_92192)">
<path d="M125.563 32.0386C124.123 31.9912 122.687 31.9439 121.246 31.9914C114.553 32.269 106.974 33.4385 102.215 38.5772C99.9445 41.0299 98.7123 44.0679 98.8863 47.4036C99.0001 49.2902 99.5065 51.1336 100.374 52.8193C100.366 52.8336 100.358 52.8478 100.35 52.8618C100.346 52.8694 100.341 52.877 100.337 52.8844C100.082 53.3137 99.5423 53.9111 98.9981 54.5135C98.3095 55.2758 97.6136 56.0462 97.4767 56.4949C97.4421 56.6088 97.4677 56.7478 97.5007 56.8592C97.6133 57.2344 98.0045 57.5276 98.3115 57.7576L98.3345 57.7749C99.0078 57.1222 99.6192 56.4131 100.231 55.7041L100.279 55.6476L101.517 54.1578C104.803 55.9948 108.029 56.5746 111.715 55.5663C116.228 54.3319 119.718 51.1662 121.967 47.1889C124.471 42.7612 125.624 37.0757 125.791 32.0462L125.563 32.0386ZM119.025 36.4764C119.043 36.4808 119.06 36.485 119.076 36.4892C119.237 36.529 119.382 36.5651 119.518 36.6716C119.663 36.7854 119.777 36.9668 119.767 37.1526C119.755 37.3748 119.673 37.4864 119.518 37.6417C119.035 38.1234 118.451 38.5467 117.878 38.9622C117.625 39.1458 117.373 39.3279 117.134 39.5128C115.618 40.6699 114.124 41.8537 112.652 43.0637C113.582 42.8417 116.698 42.3155 117.509 42.5888C117.759 42.6742 117.843 42.7953 117.945 43.0263C117.923 43.3678 117.817 43.5752 117.487 43.7183C117.337 43.7837 116.219 43.8908 114.966 44.011C113.538 44.1479 111.934 44.3016 111.384 44.4298C111.035 44.5111 110.759 44.6258 110.466 44.8283C110.023 45.1347 109.623 45.5173 109.227 45.8949C109.08 46.0353 108.934 46.175 108.786 46.3099C107.487 47.4987 106.213 48.6966 104.968 49.9407C105.852 50.1334 107.153 50.0717 108.413 50.0119C109.831 49.9446 111.198 49.8798 111.857 50.1839C111.965 50.3205 111.996 50.4652 111.982 50.6392C111.969 50.7791 111.888 50.8669 111.788 50.9572C111.243 51.4459 105.873 51.2898 105.04 51.1962C105.006 51.191 104.972 51.1851 104.936 51.1791C104.75 51.1477 104.544 51.1129 104.369 51.1491C103.02 51.4231 101.173 53.4821 100.37 54.514L100.419 54.4011C100.794 53.5397 101.17 52.6743 101.691 51.8866C102.572 50.5522 105.076 48.0818 106.303 46.9141C106.498 46.7286 106.725 46.5399 106.96 46.3455C107.477 45.9159 108.028 45.4587 108.333 44.9511C108.641 44.4393 108.824 43.3694 109.017 42.2464C109.258 40.8353 109.514 39.3402 110.05 38.7636C110.206 38.5961 110.253 38.5861 110.466 38.5644C110.678 38.6558 110.813 38.7445 110.932 38.9463C111.02 39.0936 111.031 39.2406 111.008 39.4047C110.953 39.8023 110.812 40.2205 110.673 40.6299C110.598 40.8513 110.524 41.0701 110.465 41.2816C110.264 42.0009 110.112 42.7317 109.96 43.4618C109.942 43.5441 109.925 43.6271 109.908 43.7093C110.616 43.0368 111.412 42.439 112.201 41.8462C112.457 41.6541 112.712 41.4625 112.963 41.2691C113.343 40.9763 113.725 40.684 114.107 40.3915C115.771 39.1176 117.443 37.837 119.025 36.4764Z" fill="white"/>
<path d="M20.8223 0.503573C20.7963 0.506342 20.7706 0.511951 20.7448 0.516179C17.8881 0.854057 15.3025 2.14123 13.5015 4.38665C11.2964 7.13569 10.6931 10.6477 11.1124 14.0679C11.4756 17.0312 12.85 19.8296 15.2768 21.6716C17.7005 23.5115 20.5195 24.0317 23.5126 23.802C26.4236 23.4078 29.0497 22.1085 30.8581 19.7795C32.9562 17.0777 33.5333 13.5091 33.0756 10.1959C32.6599 7.187 31.1407 4.38406 28.6582 2.54969C26.4085 0.887479 23.6094 0.212866 20.8223 0.503573ZM21.7557 4.34121C23.3193 4.32218 24.7348 4.61142 25.9649 5.61481C27.4698 6.84222 28.151 8.77961 28.324 10.6449C28.547 13.0472 28.2811 15.8856 26.6436 17.8062C25.516 19.1287 24.07 19.657 22.3663 19.8054C22.3347 19.8085 22.3032 19.8131 22.2714 19.8148C20.8267 19.8878 19.3211 19.4664 18.2028 18.5488C16.6672 17.2889 16.0177 15.3726 15.8549 13.4634C15.6509 11.0725 15.8403 8.15809 17.4974 6.24599C18.6199 4.95093 20.0774 4.46164 21.7557 4.34121Z" fill="white"/>
<path d="M55.5822 6.53199C55.5722 6.53309 55.5623 6.53419 55.5523 6.5352C53.6 6.72094 51.9339 7.48434 50.6625 8.98612C49.0735 10.8629 48.532 13.4968 48.7684 15.886C48.9675 17.8981 49.8055 19.8848 51.4313 21.1776C53.0707 22.4814 55.1708 22.7886 57.2171 22.5439C58.829 22.3511 59.893 21.6424 61.008 20.5223C61.0096 20.6308 61.0118 20.7416 61.014 20.8541C61.0436 22.3719 61.0794 24.2074 59.9374 25.3351C59.1697 26.0931 58.0694 26.2547 57.0301 26.2333C55.9062 26.2102 54.7741 25.9546 53.9748 25.114C53.7484 24.8758 53.6001 24.5805 53.4539 24.2891C53.4282 24.2379 53.4025 24.1868 53.3765 24.1361C52.9691 24.135 52.5458 24.1212 52.1164 24.1072C51.0761 24.0732 50.0006 24.0381 49.03 24.1801C48.9455 24.4004 49.0082 24.6384 49.0677 24.8648C49.0796 24.9098 49.0913 24.9544 49.1017 24.9982C49.6821 26.7101 50.9181 28.0292 52.5469 28.8436C54.8604 30.0003 58.1522 30.1016 60.5922 29.2962C62.3875 28.7036 63.936 27.5046 64.7821 25.8157C65.1074 25.1534 65.3165 24.4415 65.4006 23.7103C65.5685 22.3708 65.5542 20.9637 65.5403 19.5811C65.5352 19.0785 65.5301 18.5791 65.5338 18.0874L65.5612 6.90317C65.1153 6.9038 64.6692 6.90574 64.2231 6.90767C63.1785 6.9122 62.1335 6.91674 61.0894 6.90455L61.0867 8.36892C59.4469 7.0336 57.8003 6.36306 55.639 6.52634C55.62 6.52778 55.6011 6.52988 55.5822 6.53199ZM56.7673 10.1033C57.6367 10.0304 58.5473 10.1816 59.2963 10.6364C60.1526 11.1563 60.6842 11.9975 60.918 12.9493C61.2538 14.3169 61.2304 16.1914 60.4528 17.4072C59.8339 18.3749 58.9423 18.7387 57.856 18.9628C56.8954 19.0676 55.9054 18.9464 55.0903 18.3953C54.1306 17.7465 53.6104 16.6816 53.4179 15.5762C53.1847 14.2374 53.3442 12.6706 54.1744 11.5503C54.8188 10.6809 55.7128 10.2585 56.7673 10.1033Z" fill="white"/>
<path d="M85.8877 38.6617C84.4624 37.5013 82.6817 37.0684 80.8606 37.1113C78.731 37.2741 77.4451 37.902 76.0388 39.4736L76.0322 37.4769L71.4991 37.4782L71.5008 60.1442L76.113 60.1401L76.1065 56.798L76.113 52.5678C77.7832 53.9388 79.5698 54.6374 81.7687 54.4479C83.7045 54.282 85.3953 53.4152 86.6457 51.9474C88.3942 49.8941 88.9081 47.0407 88.6532 44.432C88.4421 42.2738 87.6239 40.0762 85.8877 38.6617ZM79.6267 40.847C80.5439 40.751 81.5287 40.9622 82.2817 41.4949C83.316 42.2258 83.8076 43.4261 83.9766 44.6312C84.196 46.1998 84.0377 48.0409 83.0059 49.3232C82.2998 50.2007 81.447 50.5674 80.3533 50.7146C79.3982 50.8065 78.3548 50.5902 77.5721 50.0307C76.6805 49.3932 76.2096 48.4222 76.0388 47.3708C75.7798 45.781 75.8252 43.6196 76.8479 42.2844C77.5548 41.3625 78.5 40.9818 79.6267 40.847Z" fill="white"/>
<path d="M68.8994 45.0949C68.5227 40.2762 64.2593 36.6683 59.3713 37.0318C54.4718 37.3961 50.8021 41.6113 51.1797 46.4415C51.5572 51.271 55.8386 54.8823 60.7369 54.5017C65.6237 54.1228 69.2761 49.9138 68.8994 45.0949ZM59.6491 40.6801C60.4981 40.5822 61.4411 40.7929 62.1701 41.2248C63.1674 41.8153 63.7773 42.8164 64.0405 43.9142C64.4221 45.5047 64.3529 47.5775 63.4371 48.99C62.7738 50.0122 61.8668 50.4976 60.6952 50.7391C59.6291 50.7814 58.6816 50.6985 57.7744 50.0772C56.7616 49.3844 56.2156 48.2516 56.013 47.0823C55.7402 45.5063 55.8663 43.5807 56.8525 42.252C57.5555 41.3051 58.5014 40.8549 59.6491 40.6801Z" fill="white"/>
<path d="M18.8429 31.4171C19.1861 31.3707 19.5571 31.3766 19.9042 31.3655C22.4286 31.2853 25.136 31.7151 27.0328 33.4976C28.42 34.8011 28.8283 36.363 28.8668 38.1966L24.2967 38.2137C24.2435 37.3116 24.1069 36.5913 23.3929 35.9481C22.4393 35.089 21.01 34.8854 19.7629 34.947C18.7829 34.9955 17.7613 35.2609 17.0994 36.0231C16.6173 36.5782 16.4594 37.2974 16.5404 38.0129C16.6182 38.702 16.9721 39.2512 17.5514 39.6395C18.4566 40.2466 19.6159 40.475 20.6668 40.7074C22.9798 41.2189 25.8686 41.6234 27.7237 43.183C28.8614 44.1392 29.392 45.4062 29.4998 46.8569C29.6315 48.6288 29.1513 50.2909 27.9502 51.6335C26.2798 53.5005 23.7905 54.2584 21.3435 54.4162C18.6413 54.6008 15.6543 54.0714 13.5412 52.293C11.9915 50.9895 11.334 49.3216 11.1766 47.357L15.8319 47.3497C16.044 48.3239 16.403 49.1362 17.2191 49.7648C18.341 50.6292 19.9167 50.8024 21.2932 50.6504C22.3679 50.5316 23.4963 50.1185 24.168 49.2419C24.5862 48.6963 24.7339 48.0214 24.6405 47.3481C24.5441 46.6536 24.1461 46.0901 23.5566 45.7079C22.8919 45.2769 22.072 45.0655 21.312 44.8662C18.8079 44.21 15.8046 43.9945 13.7177 42.3665C12.5893 41.4863 11.9302 40.2867 11.7649 38.8777C11.5615 37.1434 11.9022 35.5167 13.0206 34.1344C14.421 32.4034 16.6878 31.6639 18.8429 31.4171Z" fill="white"/>
<path d="M81.9585 7.70676C80.3196 6.65304 78.1553 6.46674 76.2509 6.53855C74.1897 6.67378 71.783 7.14022 70.3628 8.76747C69.603 9.63822 69.3175 10.6849 69.2693 11.8082L73.5274 11.8251C73.991 10.9083 74.5559 10.2651 75.5844 9.94495C76.5165 9.65481 77.733 9.65392 78.5999 10.1238C79.1014 10.3959 79.5022 10.8611 79.6631 11.4064C79.7519 11.7046 79.7783 12.0253 79.8039 12.3373C79.808 12.3873 79.8121 12.4371 79.8165 12.4865C79.5253 12.8072 79.2672 13.0275 78.8614 13.1953C77.9019 13.5921 76.7526 13.6666 75.6589 13.7375C75.2783 13.7621 74.9045 13.7864 74.5477 13.8236C71.345 14.1575 68.3617 15.3244 68.5987 19.0578C68.6464 19.8098 68.8453 20.4604 69.172 21.1375C70.0069 22.451 71.1314 23.2697 72.6729 23.6079C74.5411 24.0178 76.8002 23.8247 78.4399 22.7968C79.0065 22.4415 79.4799 22.0006 79.9361 21.5171C80.0293 22.1652 80.1596 22.7889 80.3221 23.4235L84.6094 23.4151C84.1364 21.1843 84.1721 18.8694 84.2073 16.5784C84.2169 15.9605 84.2263 15.3443 84.2258 14.7321C84.2256 14.5207 84.2273 14.3053 84.229 14.0869C84.2395 12.7279 84.2508 11.2587 83.811 10.0005C83.4736 9.03591 82.8179 8.25988 81.9585 7.70676ZM79.6746 15.6244L79.8033 15.693C79.988 16.6433 79.748 17.8999 79.2523 18.7157C78.7088 19.6114 77.8279 20.2874 76.7936 20.5305C75.8459 20.7531 75.0071 20.6325 74.1856 20.1202C73.845 19.8169 73.5711 19.4999 73.4268 19.0615C73.261 18.5546 73.2891 17.9446 73.548 17.4722C74.1237 16.4239 76.1863 16.1507 77.896 15.9242C78.587 15.8326 79.2204 15.7487 79.6746 15.6244Z" fill="white"/>
<path d="M32.3526 31.2314L36.9394 31.2315L36.9437 39.6182C37.1511 39.3514 37.3597 39.0839 37.5962 38.8411C38.7597 37.6462 40.3515 37.1137 42.0062 37.0844C43.7225 37.0539 45.5161 37.4909 46.7658 38.7103C47.5565 39.4818 48.0749 40.4966 48.316 41.5619C48.6591 43.0782 48.4852 44.8054 48.4854 46.3578L48.4878 53.9951L43.9047 53.9968C43.8671 51.9516 43.9016 49.8992 43.9019 47.8532C43.8988 46.2008 44.3159 43.166 43.1422 41.8601C42.6063 41.264 41.8489 41.0162 41.0608 40.9749C39.9926 40.9191 38.7995 41.0545 37.9935 41.8137C37.4946 42.2837 37.1962 42.9237 37.0572 43.5832C36.7765 44.9144 36.9311 46.4513 36.9377 47.8085L36.9416 53.9951L32.3536 53.9968C32.3041 51.4206 32.3493 48.8347 32.3498 46.2578L32.3526 31.2314Z" fill="white"/>
<path d="M97.5759 6.53422C97.8307 6.51494 98.0864 6.50462 98.3421 6.50332C99.9901 6.49372 101.509 6.96943 102.694 8.13488C103.459 8.89691 103.993 9.85459 104.235 10.8999C104.606 12.4677 104.409 14.29 104.409 15.9002L104.419 23.4193H99.8688L99.8746 16.5953C99.8754 15.3616 99.9703 14.0242 99.802 12.8029C99.7303 12.2822 99.6065 11.7686 99.2898 11.3355C98.8386 10.7176 98.0782 10.3463 97.3194 10.2627C96.0781 10.1259 94.9935 10.3169 93.9872 11.0643C93.4874 11.6184 93.2606 12.092 93.1162 12.8208C92.8787 14.0137 93.0131 15.3977 93.0148 16.6102L93.0263 23.4188L88.3365 23.4198L88.344 6.90543L92.8605 6.90771C92.8622 7.62981 92.8696 8.352 92.882 9.07402C92.9933 8.93 93.1055 8.78745 93.2202 8.64653C94.3493 7.26087 95.8298 6.72198 97.5759 6.53422Z" fill="white"/>
<path d="M124.25 6.53619C126.139 6.42251 128.028 6.73355 129.664 7.70823C131.57 8.84416 132.579 10.5047 133.106 12.5953C131.59 12.5775 130.074 12.5763 128.558 12.5919C128.205 11.7723 127.706 11.0636 126.946 10.5605C126.159 10.0386 125.175 9.82046 124.243 10.0246C123.168 10.2597 122.275 10.8986 121.689 11.8157C120.761 13.2704 120.67 15.4141 121.089 17.0444C121.383 18.1931 122.036 19.2804 123.106 19.8784C123.983 20.3687 125.123 20.4788 126.087 20.1875C127.344 19.807 128.042 18.8034 128.603 17.7061L129.294 17.7057L133.018 17.7019C132.702 18.9306 132.275 20.0443 131.455 21.0382C130.084 22.7011 128.067 23.5856 125.932 23.8038C123.575 24.0446 121.206 23.5072 119.354 22.008C117.534 20.5355 116.519 18.3871 116.317 16.0943C116.106 13.694 116.614 11.2636 118.217 9.38907C119.769 7.57552 121.899 6.74266 124.25 6.53619Z" fill="white"/>
<path d="M45.733 6.61717C46.1574 6.59034 46.5804 6.64092 47.0031 6.67645L47.0014 10.8962L46.3209 10.8911C44.8121 10.8879 43.1009 10.9843 41.984 12.1308C41.4728 12.6557 41.1836 13.3064 41.027 14.0101C40.7512 15.2494 40.8894 16.6721 40.8948 17.9405L40.9049 23.4182C39.5547 23.4217 37.6936 23.5816 36.389 23.3816C36.2554 23.1951 36.2936 23.011 36.2861 22.787L36.2866 6.90894L40.8147 6.9065C40.8361 7.67243 40.8642 8.43812 40.899 9.20356C41.0765 8.91911 41.2654 8.65125 41.484 8.39559C42.5416 7.15867 44.1684 6.75029 45.733 6.61717Z" fill="white"/>
<path d="M108.647 6.90723L113.315 6.91081L113.311 17.8476C113.311 19.6927 113.415 21.5817 113.29 23.4199L108.633 23.4216C108.708 21.2785 108.666 19.1238 108.666 16.9792L108.647 6.90723Z" fill="white"/>
<path d="M108.531 0.48722L113.704 0.483398C113.692 1.75659 113.694 3.02986 113.708 4.30298L108.531 4.30485V0.48722Z" fill="white"/>
</symbol>
<defs>
<clipPath id="clip0_8223_92192">
<rect width="142" height="60" fill="white"/>
</clipPath>
</defs>
</svg>
